<svg width="1005.372" height="997.007" xml:space="preserve" xmlns:xlink="http://www.w3.org/1999/xlink" xmlns="http://www.w3.org/2000/svg"><defs><linearGradient xlink:href="#a" id="b" x1="18.492" y1="255.847" x2="501.568" y2="255.847" gradientUnits="userSpaceOnUse" spreadMethod="pad" gradientTransform="matrix(2.08119 0 0 2.08119 -29.706 -23.795)"/><linearGradient id="a"><stop style="stop-color:#00bdff;stop-opacity:1" offset=".45"/><stop style="stop-color:#006cff;stop-opacity:1" offset="1"/></linearGradient></defs><path style="display:inline;mix-blend-mode:normal;fill:url(#b);fill-opacity:1;fill-rule:evenodd;stroke:#000;stroke-width:0;stroke-linecap:round" d="M271.911 10.166a49.165 49.165 0 0 0-49.164 49.168 49.165 49.165 0 0 0 49.164 49.164 49.165 49.165 0 0 0 20.032-4.296l62.7 62.7v108.156c-45.064 1.432-80.965 37.769-81.63 83.028H208.43l-43.274-43.274a49.165 49.165 0 0 0 5.662-22.653 49.165 49.165 0 0 0-49.164-49.164 49.165 49.165 0 0 0-49.164 49.164 49.165 49.165 0 0 0 49.164 49.164 49.165 49.165 0 0 0 16.528-2.992l55.44 55.44v.02h79.325v30.353H166.324v.017l-81.077 81.08a49.165 49.165 0 0 0-27.304-8.28A49.165 49.165 0 0 0 8.78 546.125a49.165 49.165 0 0 0 49.164 49.164 49.165 49.165 0 0 0 49.164-49.164 49.165 49.165 0 0 0-1.26-10.995l75.285-75.284h91.816v31.94h-51.103v35.702h51.103v29.893H121.322v35.701h151.626v31.921H179.18v.07L75.068 729.187a49.165 49.165 0 0 0-17.064-3.064A49.165 49.165 0 0 0 8.84 775.288a49.165 49.165 0 0 0 49.164 49.168 49.165 49.165 0 0 0 49.164-49.168 49.165 49.165 0 0 0-5.377-22.333l92.25-92.25h79.13c2.245 43.565 37.135 78.125 80.846 79.832v110.551l-62.375 62.375a49.165 49.165 0 0 0-20.796-4.618 49.165 49.165 0 0 0-49.164 49.164 49.165 49.165 0 0 0 49.164 49.164 49.165 49.165 0 0 0 49.168-49.164 49.165 49.165 0 0 0-3.707-18.718l73.212-73.212h.199V740.704h31.21V842.48h35.7V740.704h30.166V883.88l-.46.46.46.459v.012h.012l46.022 46.022a49.165 49.165 0 0 0-7.695 26.38 49.165 49.165 0 0 0 49.168 49.165 49.165 49.165 0 0 0 49.164-49.164 49.165 49.165 0 0 0-49.164-49.164 49.165 49.165 0 0 0-12.145 1.622l-39.66-39.66V740.703h30.079v51.213h35.705v-51.213h31.417v99.633h-.053v35.705h.053v.074h35.701v-.074h82.549a49.165 49.165 0 0 0 46.27 32.901 49.165 49.165 0 0 0 49.164-49.168 49.165 49.165 0 0 0-49.164-49.164 49.165 49.165 0 0 0-45.087 29.726h-83.731V740.66c44.745-.453 80.847-35.36 83.32-79.577h142.269l26.466 26.466a56.614 56.614 0 0 0-6.528 26.104 56.614 56.614 0 0 0 56.61 56.615 56.614 56.614 0 0 0 56.615-56.615 56.614 56.614 0 0 0-56.615-56.615 56.614 56.614 0 0 0-24.466 5.638l-37.234-37.234-.11.11v-.175H738.96V593.46h83.207v-35.705h-83.207v-31.06h88.515v-.085l100.15-100.144a49.165 49.165 0 0 0 24.417 6.621 49.165 49.165 0 0 0 49.164-49.164 49.165 49.165 0 0 0-49.164-49.168 49.165 49.165 0 0 0-49.164 49.168 49.165 49.165 0 0 0 2.252 14.544l-92.524 92.523H738.96v-30.685h49.22v-35.701h-49.22V392.85H812.8l.082.08.081-.08h.09v-.09l55.338-55.338a49.165 49.165 0 0 0 20.743 4.613 49.165 49.165 0 0 0 49.164-49.164 49.165 49.165 0 0 0-49.164-49.164 49.165 49.165 0 0 0-49.164 49.164 49.165 49.165 0 0 0 3.792 18.686l-45.59 45.591H738.85c-1.152-44.925-37.006-80.838-81.902-82.101v-41.323l96.019-96.019a49.165 49.165 0 0 0 19.218 3.992 49.165 49.165 0 0 0 49.164-49.164 49.165 49.165 0 0 0-49.164-49.168 49.165 49.165 0 0 0-49.164 49.168 49.165 49.165 0 0 0 4.378 20.247L621.641 218.538h-.395v.394l-.09.09.09.09v55.813h-32.299v-48.737h-35.701v48.736h-30.267V157.687a49.165 49.165 0 0 0 29.714-45.083 49.165 49.165 0 0 0-49.164-49.164 49.165 49.165 0 0 0-49.164 49.164 49.165 49.165 0 0 0 32.908 46.278v116.042h-31.876v-48.359h-35.701v48.36h-29.352V152.231l.06-.061-.06-.061v-.045h-.045l-73.297-73.297a49.165 49.165 0 0 0 4.073-19.434 49.165 49.165 0 0 0-49.164-49.168zm281.164 145.805v36.417h37.246V155.97zm-131.965.472v36.42h37.246v-36.42zm315.426 100.035v36.42h37.246v-36.42zm-480.851 1.508a18.17 18.17 0 0 0-18.21 18.21 18.17 18.17 0 0 0 18.21 18.21h.825a18.17 18.17 0 0 0 18.21-18.21 18.17 18.17 0 0 0-18.21-18.21zM809.47 410.372v36.42h37.25v-36.42zm-651.366 81.26v36.42h37.25v-36.42zm694.31 67.175v36.42h37.25v-36.42zM737.895 723.11v36.42h37.25v-36.42zm-503.554 1.894v36.42h37.246v-36.42zm317.434 99.62v36.421h37.246v-36.42zM419.22 874.171v36.421h37.246v-36.42z" transform="translate(-8.78 -10.166)"/><path style="display:inline;fill:#000;fill-opacity:1;stroke-width:.941566" d="M351.574 312.474c1.178-.742 3.963-2.805 6.229-3.577 2.119-.723 4.926-1.02 6.653-.91 2.154.137 3.442.465 6.604 2.922 3.741 2.906 9.416 7.112 16.836 12.2 7.419 5.087 15.47 10.66 17.89 12.382 9.58 6.819 8.225 6.861 25.168-.79 8.256-3.727 15.172-7.356 15.952-7.537.68-.158 4.12-1.065 8.004-1.738 3.863-.67 9.18-1.442 11.77-2.01 7.953-1.74 13.865-2.377 21.655-3.835 4.22-.79 8.187-1.65 9.416-1.828 5.244-.757 12.833-2.477 20.244-.956 2.848.584 8.78 1.666 13.181 2.404 7.83 1.313 13.359 2.347 22.363 4.184 2.46.501 7.65 1.39 11.534 1.976 3.884.586 8.455 2.04 10.357 2.797 2.005.8 6.473 3.19 10.357 4.972 3.884 1.78 9.6 4.41 12.702 5.84l5.64 2.603 3.775-2.144a812.336 812.336 0 0 1 7.793-4.353c2.21-1.215 6.235-3.823 8.945-5.795 6.448-4.691 14.082-9.524 14.953-10.124.362-.249 1.266-1.006 2.66-1.921 3.333-2.186 6.544-4.33 10.178-6.02.2-.093 3.152-1.32 5.29-.967 4.441.42 7.637.673 11.275 1.885 7.925 2.64 8.963 3.85 14.704 8.66 3.095 2.593 5.677 5.724 6.277 6.46 1.391 1.708 4.996 10.638 6.556 16.065.7 2.434.756 2.275 1.774 5.857.175.613 1.174 3.532 2.22 6.45 1.196 3.335 2.171 7.1 2.544 8.42.977 3.469 1.122 8.767.922 11.709-.1 1.468-.6 5.913-1.328 12.182-.674 5.804-2.253 11.026-2.372 11.555-.082.363-.7 2.791-1.52 5.46-1.806 5.88-1.575 9.557-10.192 22.034-16.777 24.294-17.037 24.771-15.297 28.025.48.899 2.443 5.872 4.36 11.05 1.916 5.179 4.966 13.017 6.777 17.42 3.715 9.032 4.266 10.43 5.93 15.064.651 1.813 2.177 5.533 3.39 8.267 2.413 5.434 1.61 6.556 1.266 8.21-.453 2.174-.647 2.11-.942 3.666-.524 2.766-.568 3.252-.706 3.78-.138.527-1.208 3.737-1.82 7.454-1.46 8.853-2.15 12.003-3.13 14.29-.443 1.035-1.025 3.153-1.292 4.707-.968 5.628-3.332 16.12-4.767 21.155-.806 2.832-1.595 6.363-1.794 8.02-.659 2.93-.236 1.39-1.55 7.574-1.858 6.02-4.815 24.303-10.363 28.321-2.33 1.688-4.537 3.097-4.904 3.131-.81.076-21.607 13.73-22.272 14.593-6.338 4.349-13.258 9.483-19.578 13.59-27.689 19.7-57.916 37.987-83.124 55.35-5.853 5.092-12.567 15.513-18.174 16.061-5.608.548-14.815 1.68-20.202-1.227-3.598-2.774-7.658-5.91-11.082-8.974-1.043-.815-2.344-1.501-10.266-6.558-7.803-4.98-15.752-11.077-18.341-12.728-2.59-1.652-8.992-5.883-13.794-9.085-4.801-3.203-7.738-5.88-7.96-5.88-.221 0-2.435-1.565-4.662-3.041-2.227-1.477-7.358-5.138-12.019-8.138-4.66-3-12.482-8.535-17.66-11.91-5.179-3.374-10.44-7.2-12.253-8.334-1.813-1.134-9.348-6.326-16.857-11.256-7.509-4.931-14.815-10.14-16.627-11.128-7.395-4.03-10.969-7.356-11.835-9.647-.874-2.313-1.25-3.57-1.82-5.278-.543-1.626-1.616-5.39-2.253-8.474-1.622-7.844-2.308-10.894-2.93-13.182-.296-1.087-1.026-3.154-1.293-4.708-.938-5.444-3.297-16.988-4.33-21.185-.573-2.33-1.638-7.627-2.367-11.77-.73-4.143-1.8-9.227-2.382-11.299-.581-2.071-1.445-6.096-1.92-8.944-.476-2.849-1.36-6.764-1.963-8.7-1.149-3.682-.978-4.359 3.868-15.31.917-2.072 1.991-5.25 2.388-7.062.396-1.813 1.724-5.493 2.95-8.178 1.227-2.686 2.23-5.127 2.23-5.425 0-.298.798-2.337 1.773-4.533 5.265-11.863 8.585-20.571 8.582-22.515-.004-2.245-1.544-4.995-6.498-11.606-3.776-5.038-16.402-23.88-17.982-26.835-.692-1.294-1.231-5.174-2.02-8.474-.803-3.366-1.918-8.85-2.297-12.24-.379-3.38-2.405-14.477-2.31-16.516 0 0-.735-6.899-.156-10.319.517-3.05 1.99-9.148 1.99-9.148 1.644-4.66 2.241-8.467 3.667-12.603.741-2.152 1.952-5.314 2.536-6.338.584-1.024 1.393-3.503 2.422-5.356 1.038-1.871 2.373-3.934 3.012-4.738 1.32-1.662 10.646-8.539 10.646-8.539m182.124 351.864c3.884-.852 8.333-1.792 9.887-2.09 2.808-.537 14.435-10.982 18.558-16.671l1.943-2.68-2.907 1.503c-2.247 1.162-5.835 1.503-15.81 1.503h-12.902l-5.809-3.248-5.808-3.249-5.393 3.249-5.392 3.248h-13.182c-10.229 0-13.832-.337-16.088-1.503l-2.906-1.503 1.942 2.68c4.124 5.69 15.75 16.134 18.559 16.672 13.356 2.557 16.662 3.298 17.226 3.862.919.919 9.761.051 18.082-1.773zm-77.809-28.023c-.714-1.123-2.334-5.4-6.71-17.717-.827-2.33-2.362-5.72-3.41-7.533-1.646-2.847-1.956-5.376-2.28-18.596l-.374-15.3h-26l-6.55-5.472c-3.601-3.01-7.983-7.104-9.736-9.098-3.072-3.495-3.21-3.987-3.8-13.595-.337-5.483-.93-14.745-1.32-20.583l-.705-10.614 6.969-7.276c6.825-7.126 9.474-10.272 13.85-16.447 13.307-18.783 20.659-28.02 22.3-28.02.75 0 3.679 1.06 6.51 2.354 2.83 1.295 5.54 2.354 6.022 2.354.941 0 10.018 3.42 12.545 4.728.843.436 3.04 1.075 4.882 1.42 6.706 1.259 6.842 1.757 8.918 32.615.371 5.525.961 10.33 1.31 10.679.35.348 3.104-.234 6.121-1.295 8.75-3.078 13.338-4.062 23.374-5.012 18.578-1.76 38.258-.173 48.02 3.87 5.327 2.206 7.222 2.898 7.944 2.898.436 0 1.06-4.555 1.388-10.122 1.857-31.592 1.795-31.335 7.927-33.208 1.9-.58 4.303-1.43 5.339-1.888 1.035-.458 5.584-2.11 10.108-3.67 4.523-1.56 9.547-3.52 11.164-4.356 1.617-.836 3.848-1.272 4.958-.968 1.109.304 4.347 3.81 7.195 7.79 2.849 3.98 7.385 10.227 10.08 13.883 2.697 3.655 6.274 8.552 7.95 10.883 1.676 2.33 6.419 7.516 10.54 11.524l7.494 7.288-.72 10.602c-.395 5.831-.989 15.114-1.318 20.628l-.6 10.026-3.766 3.51c-2.072 1.93-6.378 5.998-9.57 9.04l-5.803 5.532h-26.527v12.009c0 10.638-.28 12.76-2.46 18.596a7914.69 7914.69 0 0 0-5.078 13.648c-1.44 3.884-3.316 8.917-4.168 11.184-.852 2.267-1.313 4.358-1.025 4.647 1.176 1.176 16.55-5.013 24.03-9.673 4.402-2.743 9.91-6.05 12.24-7.348 16.463-9.176 42.815-25.11 45.361-27.427 1.777-1.618 2.709-3.637 3.16-6.847.354-2.504 1.656-7.633 2.895-11.398 1.24-3.766 2.04-7.688 2.253-8.666.218-1 .378-2.792.84-3.981 1.095-2.827 6.423-20.966 8.517-28.998.472-1.812 2.01-7.035 3.418-11.606 3.448-11.194 3.303-16.048-.791-26.527-5.604-14.342-11.79-30.951-12.45-33.426-.345-1.294-1.44-4.15-2.434-6.345-.994-2.195-1.807-4.355-1.807-4.8 0-.443-2.225-4.18-4.944-8.301a827.908 827.908 0 0 1-9.029-14.032 7195.972 7195.972 0 0 0-11.95-19.008c-4.326-6.859-8.42-13.457-9.097-14.664-1.766-3.147-6.369-10.512-10.054-16.086-6.468-9.785-14.245-22.339-14.245-22.995 0-.373-1.3-2.255-2.888-4.182-2.034-2.468-6.283-5.208-14.36-9.262-6.308-3.166-11.958-6.153-12.556-6.636-1.882-1.525-9.322-3.583-21.982-6.082-3.884-.766-8.757-1.786-10.828-2.265-2.072-.48-6.944-1.499-10.828-2.266-3.884-.766-8.969-1.884-11.299-2.484-2.33-.6-5.508-1.09-7.062-1.09-1.553 0-4.731.49-7.062 1.09-2.33.6-7.202 1.678-10.828 2.396-3.625.718-8.497 1.78-10.828 2.36-2.33.581-6.779 1.445-9.886 1.92-5.348.817-7.11 1.23-16.713 3.915-2.2.616-6.847 2.705-10.326 4.642-3.478 1.938-9.455 4.99-13.282 6.782-5.09 2.384-7.635 4.235-9.478 6.892-3.078 4.439-11.02 16.895-16.11 25.269-2.072 3.407-6.445 10.314-9.719 15.348-3.273 5.034-7.044 11.06-8.38 13.39-2.374 4.145-6.865 11.251-14.877 23.54-2.195 3.365-4.53 7.179-5.188 8.473-.66 1.295-2.768 4.73-4.687 7.633-1.92 2.904-4.635 8.412-6.036 12.24-1.4 3.83-2.943 7.698-3.429 8.597-.786 1.955-1.25 3.58-1.91 5.85-.279.505-1.845 4.912-3.574 9.463-3.898 10.262-7.349 20.895-8.158 22.204-.905 1.465.125 9.654.349 11.854.255 2.507 1.456 7.76 3.168 12.079.772 1.95 1.353 4.575 1.647 5.65 1.93 7.06 2.71 8.278 3.34 11.769.41 2.275.954 4.355 1.38 5.65.425 1.294 1.295 4.26 1.932 6.59.636 2.33 1.498 5.085 1.913 6.12 1.184 2.95 4.613 16.693 5.555 19.94.803 2.795 1.23 4.501 1.949 6.304 1.619 3.048 3.561 5.984 10.828 10.102 3.107 1.76 6.497 3.713 7.533 4.34 1.035.627 2.518 1.44 3.295 1.807.777.366 3.107 1.798 5.179 3.182 2.071 1.384 10.333 6.252 18.36 10.82 8.027 4.566 16.29 9.453 18.36 10.858 2.072 1.405 6.097 3.31 8.946 4.234 2.848.923 6.026 2.005 7.061 2.405 4.82 1.857 5.884 1.799 4.578-.251zm35.91-1.69c2.071-.46 5.249-1.265 7.061-1.788 8.89-2.566 11.042-3.134 13.653-3.607 3.55-.643 5.179-1.92 5.179-4.056 0-1.936-1.662-2.783-7.533-3.842-2.33-.42-6.355-1.227-8.945-1.793a577.659 577.659 0 0 0-8.945-1.868c-9.511-1.886-9.413-1.825-11.878-7.435-1.28-2.91-3.654-7.862-5.277-11.004-4.717-9.131-1.469-12.152 5.43-5.05 3.395 3.496 4.012 3.773 7.018 3.153 4.293-.885 62.558-.885 66.85 0 3.007.62 3.623.343 7.018-3.152 4.24-4.365 8.048-5.192 8.048-1.747 0 1.829-5.215 13.803-8.932 20.51-1.244 2.243-3.622 3.245-10.37 4.368-1.554.259-3.672.839-4.708 1.29-1.036.45-3.366 1.039-5.179 1.308-14.052 2.09-15.53 2.663-14.918 5.782.453 2.304 1.245 2.641 14.448 6.15 1.553.412 4.73 1.308 7.061 1.99 5.236 1.533 24.072 1.34 26.008-.267 1.417-1.175 3.538-5.435 4.641-9.32.368-1.295 1.427-4.049 2.355-6.12 8.576-19.156 8.425-18.614 8.422-30.411-.003-9.699-.25-11.413-2.064-14.313-1.133-1.813-6.186-11.62-11.228-21.794l-9.167-18.498-8.777-4.972c-8.771-4.968-11.463-5.826-23.842-7.6-10.712-1.534-17.095-1.226-32.484 1.568-5.605 1.018-23.236 10.036-24.77 12.67-.76 1.306-4.753 8.943-8.872 16.97-4.12 8.026-8.827 17.124-10.463 20.217-2.842 5.375-2.974 6.106-2.974 16.525 0 5.995.353 11.303.784 11.795.432.492 3.214 6.827 6.184 14.077 8.65 21.117 7.646 19.682 14.22 20.32 8.869.861 12.888.848 16.946-.055zm-96.351-373.587z" transform="translate(-8.78 -10.166)"/><path style="fill:#000;fill-opacity:1;fill-rule:evenodd;stroke:#000;stroke-width:1.0294;stroke-linecap:round" d="M525.819 713.171c-20.629-20.162 95.716-67.073 143.574-100.61v0z" transform="translate(-8.78 -10.166)"/><path style="fill:#000;fill-rule:evenodd;stroke:#000;stroke-width:1.00157;stroke-linecap:round" d="m351.49 613.389 147.26 100.074z" transform="translate(-8.78 -10.166)"/></svg>