<svg width="131.569" height="26.057" viewBox="0 0 34.811 6.894" xml:space="preserve" xmlns="http://www.w3.org/2000/svg"><g transform="translate(-.412 -5.334) scale(2.88673)"><path style="display:inline;fill:#0a58ca;fill-opacity:.8;stroke-width:0;stroke-dasharray:none;stroke-opacity:0;paint-order:fill markers stroke" d="M.143 1.853h.622l.848 2.379-.633-.006z"/><path style="display:inline;fill:#0a58ca;fill-opacity:.496914;stroke-width:0;stroke-dasharray:none;stroke-opacity:0;paint-order:fill markers stroke" d="M2.45 1.848h-.622L.98 4.226l.633-.005z"/><circle style="display:inline;fill:#0a58ca;fill-opacity:.8;stroke-width:0;stroke-dasharray:none;stroke-opacity:0;paint-order:fill markers stroke" cx="2.965" cy="3.442" r=".793"/><text xml:space="preserve" style="font-size:.666981px;font-family:'Sitka Subheading';-inkscape-font-specification:'Sitka Subheading';display:inline;fill:#fff;fill-opacity:1;stroke-width:0;stroke-dasharray:none;stroke-opacity:0;paint-order:fill markers stroke" x="2.39" y="3.619"><tspan style="fill:#fff;stroke-width:0;stroke-dasharray:none" x="2.39" y="3.619">&lt;/&gt;</tspan></text><path style="display:inline;fill:#0a58ca;fill-opacity:.8;stroke-width:0;stroke-dasharray:none;stroke-opacity:0;paint-order:fill markers stroke" d="m4.059 2.637-.012 1.596h.58l.008-1.588zM5.636 2.651a.792.792 0 0 0-.792.793.792.792 0 0 0 .792.792.792.792 0 0 0 .792-.792.792.792 0 0 0-.792-.793zm0 .475a.317.317 0 0 1 .317.318.317.317 0 0 1-.317.317.317.317 0 0 1-.318-.317.317.317 0 0 1 .318-.318z"/><path style="display:inline;fill:#0a58ca;fill-opacity:.5;stroke-width:0;stroke-dasharray:none;stroke-opacity:0;paint-order:fill markers stroke" d="M6.056 1.852h.606v2.381h-.606z"/><circle style="display:inline;fill:#0a58ca;fill-opacity:.5;stroke-width:0;stroke-dasharray:none;stroke-opacity:0;paint-order:fill markers stroke" cx="4.341" cy="2.192" r=".337"/><path style="display:inline;fill:#0a58ca;fill-opacity:.8;stroke-width:0;stroke-dasharray:none;stroke-opacity:0;paint-order:fill markers stroke" d="M6.877 1.854h.606v2.381h-.606zM8.537 4.235V3.187c.003-.045.253-.724.818-.697.564.028.833.518.849.639.015.12.008 1.106.008 1.106l-.53-.002v-.878s.02-.253-.28-.296c-.3-.043-.34.292-.34.292l-.002.882zM10.451 1.85h.606v2.381h-.606z"/><path style="display:inline;fill:#0a58ca;fill-opacity:.5;stroke-width:0;stroke-dasharray:none;stroke-opacity:0;paint-order:fill markers stroke" d="m10.539 3.386.914-.854.745-.001-1.01.855 1.014.848-.727-.001z"/><path style="display:inline;fill:#0a58ca;fill-opacity:.8;stroke-width:0;stroke-dasharray:none;stroke-opacity:0;paint-order:fill markers stroke" d="M7.713 2.639 7.7 4.234h.58l.008-1.588z"/><circle style="display:inline;fill:#0a58ca;fill-opacity:.5;stroke-width:0;stroke-dasharray:none;stroke-opacity:0;paint-order:fill markers stroke" cx="7.995" cy="2.194" r=".337"/></g></svg>